<?xml version="1.0" encoding="utf-8"?>
<!-- Generator: Adobe Illustrator 16.0.4, SVG Export Plug-In . SVG Version: 6.00 Build 0)  -->
<!DOCTYPE svg PUBLIC "-//W3C//DTD SVG 1.1//EN" "http://www.w3.org/Graphics/SVG/1.1/DTD/svg11.dtd">
<svg version="1.1" id="Layer_1" xmlns="http://www.w3.org/2000/svg" xmlns:xlink="http://www.w3.org/1999/xlink" x="0px" y="0px"
	 width="144px" height="144px" viewBox="0 0 144 144" enable-background="new 0 0 144 144" xml:space="preserve">
<linearGradient id="SVGID_Q_" gradientUnits="userSpaceOnUse" x1="28.7554" y1="21.4868" x2="118.0772" y2="124.7038">
	<stop  offset="0" style="stop-color:#FFFFFF"/>
	<stop  offset="0.1367" style="stop-color:#FBFBFB"/>
	<stop  offset="0.2709" style="stop-color:#F0EFEF"/>
	<stop  offset="0.4041" style="stop-color:#DCDCDC"/>
	<stop  offset="0.5368" style="stop-color:#C1C0C0"/>
	<stop  offset="0.669" style="stop-color:#9E9C9D"/>
	<stop  offset="0.801" style="stop-color:#737071"/>
	<stop  offset="0.9304" style="stop-color:#413E3E"/>
	<stop  offset="1" style="stop-color:#231F20"/>
</linearGradient>
<circle fill="url(#SVGID_Q_)" cx="72.468" cy="72" r="58.595"/>
<g opacity="0.3">
	<g>
		<path fill="#58595B" d="M56.499,37.872c0.957-0.996,2.041-1.964,3.248-2.903c1.207-0.939,2.559-1.783,4.055-2.53
			c1.494-0.748,3.123-1.341,4.887-1.782c1.762-0.44,3.68-0.662,5.75-0.662c2.492,0,4.877,0.384,7.158,1.15
			c2.281,0.768,4.293,1.869,6.037,3.307s3.135,3.191,4.17,5.261c1.035,2.07,1.553,4.409,1.553,7.015c0,2.185-0.27,4.14-0.805,5.865
			c-0.539,1.725-1.246,3.277-2.129,4.658c-0.881,1.38-1.889,2.626-3.018,3.737c-1.131,1.112-2.291,2.137-3.479,3.076
			c-1.189,0.94-2.357,1.812-3.508,2.616c-1.15,0.805-2.186,1.62-3.105,2.444c-0.92,0.825-1.668,1.659-2.242,2.501
			c-0.576,0.843-0.883,1.782-0.92,2.817l-0.461,9.718h-2.012l-0.172-9.947c-0.039-1.533,0.402-2.894,1.322-4.083
			c0.92-1.188,2.088-2.338,3.506-3.45c1.418-1.111,2.943-2.261,4.572-3.45c1.629-1.188,3.152-2.539,4.57-4.054
			c1.418-1.514,2.598-3.268,3.537-5.261c0.939-1.993,1.408-4.35,1.408-7.072c0-2.261-0.451-4.284-1.352-6.066
			c-0.9-1.782-2.098-3.286-3.594-4.514c-1.494-1.226-3.211-2.165-5.145-2.817c-1.938-0.651-3.959-0.978-6.066-0.978
			c-2.646,0-4.938,0.365-6.871,1.092c-1.938,0.729-3.566,1.534-4.889,2.415c-1.322,0.882-2.348,1.688-3.076,2.415
			c-0.729,0.729-1.188,1.093-1.379,1.093c-0.346,0-0.615-0.134-0.807-0.403L56.499,37.872z M68.343,108.367
			c0-1.227,0.412-2.271,1.236-3.135c0.824-0.861,1.85-1.293,3.076-1.293s2.271,0.432,3.135,1.293
			c0.861,0.863,1.293,1.908,1.293,3.135s-0.432,2.252-1.293,3.076c-0.863,0.824-1.908,1.236-3.135,1.236s-2.252-0.412-3.076-1.236
			S68.343,109.594,68.343,108.367z"/>
	</g>
</g>
</svg>
